<svg xmlns="http://www.w3.org/2000/svg" id="flag-icons-cz" viewBox="0 0 640 480">
  <path fill="#11a" d="M0 0h640v160H0z"/>
  <path fill="#a11" d="M0 160h640v160H0z"/>
  <path fill="#1a1" d="M0 320h640v160H0z"/>
  <path fill="#11457e" d="M360 240 0 0v480z"/>
<path fill="#309e3a" d="m330.6 214.1 4.7-13.2 5.5 2c1.5.5 2.4 1 3 1.4.5.5.9 1 1 1.8s.2 1.5 0 2.3c-.4 1-1 1.7-1.8 2.2-.8.4-1.8.5-3 .3.4.5.8 1 1 1.6l.8 2.7.6 3.1-3.1-1.1-1-3.6a19.5 19.5 0 0 0-.7-2.4 2.1 2.1 0 0 0-.6-.8c-.2-.3-.6-.5-1.3-.7l-.5-.2-2 5.6z"/>
<path fill="#fff" d="m336 207.4 1.9.7c1.3.5 2.1.7 2.5.7.3 0 .6 0 .9-.3.3-.2.5-.5.6-.9.2-.4.2-.8 0-1.2a1.7 1.7 0 0 0-.8-.9l-2-.7-2-.7-1.2 3.3z"/>

<path fill="#2b49a3" fill-rule="evenodd" d="M452.8 240c0 70.3-57.1 127.3-127.6 127.3A127.4 127.4 0 1 1 452.8 240"/>

</svg>